<svg version="1" xmlns="http://www.w3.org/2000/svg" xmlns:xlink="http://www.w3.org/1999/xlink" width="2510.096" height="500" viewBox="0 0 2510.096 500"><g fill="#FFF"><path d="M1820.924 362.065c-10.547 12.631-25.459 22.431-44.727 29.395-19.271 6.964-40.625 10.449-64.063 10.449-24.609 0-46.191-5.371-64.746-16.113s-32.881-26.334-42.969-46.777c-10.092-20.44-15.268-44.464-15.527-72.07v-19.336c0-28.384 4.785-52.96 14.355-73.73 9.57-20.767 23.369-36.651 41.406-47.656 18.033-11.001 39.16-16.504 63.379-16.504 33.721 0 60.088 8.042 79.102 24.121 19.01 16.083 30.273 39.487 33.789 70.215h-57.031c-2.607-16.275-8.369-28.189-17.285-35.742-8.92-7.55-21.191-11.328-36.816-11.328-19.922 0-35.092 7.489-45.508 22.461-10.42 14.975-15.693 37.241-15.82 66.797v18.164c0 29.818 5.664 52.344 16.992 67.578s27.93 22.852 49.805 22.852c22.002 0 37.695-4.688 47.07-14.063v-49.023h-53.32v-43.164h111.914v113.474zM1979.424 239.604c-7.686-1.041-14.453-1.563-20.313-1.563-21.357 0-35.352 7.227-41.992 21.68v138.281h-56.445V186.674h53.32l1.563 25.195c11.328-19.4 27.018-29.102 47.07-29.102 6.25 0 12.109.849 17.578 2.539l-.781 54.298zM2119.174 398.002c-2.607-5.078-4.492-11.393-5.664-18.945-13.672 15.234-31.445 22.852-53.32 22.852-20.703 0-37.861-5.987-51.465-17.969-13.607-11.979-20.41-27.081-20.41-45.313 0-22.394 8.301-39.581 24.902-51.563 16.602-11.979 40.592-18.033 71.973-18.164h25.977v-12.109c0-9.766-2.51-17.578-7.52-23.438-5.014-5.859-12.924-8.789-23.73-8.789-9.506 0-16.963 2.28-22.363 6.836-5.404 4.56-8.105 10.81-8.105 18.75h-56.445c0-12.237 3.775-23.565 11.328-33.984 7.549-10.416 18.229-18.585 32.031-24.512 13.799-5.923 29.297-8.887 46.484-8.887 26.041 0 46.709 6.543 62.012 19.629 15.299 13.086 22.949 31.479 22.949 55.176v91.602c.127 20.053 2.93 35.224 8.398 45.508v3.32h-57.032zm-46.679-39.257c8.33 0 16.016-1.855 23.047-5.566s12.236-8.691 15.625-14.941V301.91h-21.094c-28.256 0-43.295 9.766-45.117 29.297l-.195 3.32c0 7.031 2.471 12.826 7.422 17.383 4.946 4.558 11.718 6.835 20.312 6.835zM2260.096 186.674l1.758 23.633c14.971-18.359 35.221-27.539 60.742-27.539 27.213 0 45.898 10.742 56.055 32.227 14.844-21.484 36.002-32.227 63.477-32.227 22.916 0 39.971 6.674 51.172 20.02 11.197 13.349 16.797 33.432 16.797 60.254v134.961h-56.641V263.237c0-11.979-2.344-20.733-7.031-26.27-4.688-5.533-12.959-8.301-24.805-8.301-16.928 0-28.646 8.075-35.156 24.219l.195 145.117h-56.445v-134.57c0-12.237-2.412-21.094-7.227-26.563-4.818-5.469-13.021-8.203-24.609-8.203-16.016 0-27.607 6.641-34.766 19.922v149.414h-56.445V186.674h52.929z"/></g><linearGradient id="a" gradientUnits="userSpaceOnUse" x1="1770.241" y1="-3.429" x2="2340.884" y2="567.214"><stop offset="0" stop-color="#fff373"/><stop offset="1" stop-color="#cc1414"/></linearGradient><path fill="url(#a)" d="M1820.924 362.065c-10.547 12.631-25.459 22.431-44.727 29.395-19.271 6.964-40.625 10.449-64.063 10.449-24.609 0-46.191-5.371-64.746-16.113s-32.881-26.334-42.969-46.777c-10.092-20.44-15.268-44.464-15.527-72.07v-19.336c0-28.384 4.785-52.96 14.355-73.73 9.57-20.767 23.369-36.651 41.406-47.656 18.033-11.001 39.16-16.504 63.379-16.504 33.721 0 60.088 8.042 79.102 24.121 19.01 16.083 30.273 39.487 33.789 70.215h-57.031c-2.607-16.275-8.369-28.189-17.285-35.742-8.92-7.55-21.191-11.328-36.816-11.328-19.922 0-35.092 7.489-45.508 22.461-10.42 14.975-15.693 37.241-15.82 66.797v18.164c0 29.818 5.664 52.344 16.992 67.578s27.93 22.852 49.805 22.852c22.002 0 37.695-4.688 47.07-14.063v-49.023h-53.32v-43.164h111.914v113.474z"/><linearGradient id="b" gradientUnits="userSpaceOnUse" x1="1770.241" y1="-3.429" x2="2340.884" y2="567.214"><stop offset="0" stop-color="#fff373"/><stop offset="1" stop-color="#cc1414"/></linearGradient><path fill="url(#b)" d="M1979.424 239.604c-7.686-1.041-14.453-1.563-20.313-1.563-21.357 0-35.352 7.227-41.992 21.68v138.281h-56.445V186.674h53.32l1.563 25.195c11.328-19.4 27.018-29.102 47.07-29.102 6.25 0 12.109.849 17.578 2.539l-.781 54.298z"/><linearGradient id="c" gradientUnits="userSpaceOnUse" x1="1770.241" y1="-3.429" x2="2340.884" y2="567.214"><stop offset="0" stop-color="#fff373"/><stop offset="1" stop-color="#cc1414"/></linearGradient><path fill="url(#c)" d="M2119.174 398.002c-2.607-5.078-4.492-11.393-5.664-18.945-13.672 15.234-31.445 22.852-53.32 22.852-20.703 0-37.861-5.987-51.465-17.969-13.607-11.979-20.41-27.081-20.41-45.313 0-22.394 8.301-39.581 24.902-51.563 16.602-11.979 40.592-18.033 71.973-18.164h25.977v-12.109c0-9.766-2.51-17.578-7.52-23.438-5.014-5.859-12.924-8.789-23.73-8.789-9.506 0-16.963 2.28-22.363 6.836-5.404 4.56-8.105 10.81-8.105 18.75h-56.445c0-12.237 3.775-23.565 11.328-33.984 7.549-10.416 18.229-18.585 32.031-24.512 13.799-5.923 29.297-8.887 46.484-8.887 26.041 0 46.709 6.543 62.012 19.629 15.299 13.086 22.949 31.479 22.949 55.176v91.602c.127 20.053 2.93 35.224 8.398 45.508v3.32h-57.032zm-46.679-39.257c8.33 0 16.016-1.855 23.047-5.566s12.236-8.691 15.625-14.941V301.91h-21.094c-28.256 0-43.295 9.766-45.117 29.297l-.195 3.32c0 7.031 2.471 12.826 7.422 17.383 4.946 4.558 11.718 6.835 20.312 6.835z"/><linearGradient id="d" gradientUnits="userSpaceOnUse" x1="1770.241" y1="-3.429" x2="2340.884" y2="567.214"><stop offset="0" stop-color="#fff373"/><stop offset="1" stop-color="#cc1414"/></linearGradient><path fill="url(#d)" d="M2260.096 186.674l1.758 23.633c14.971-18.359 35.221-27.539 60.742-27.539 27.213 0 45.898 10.742 56.055 32.227 14.844-21.484 36.002-32.227 63.477-32.227 22.916 0 39.971 6.674 51.172 20.02 11.197 13.349 16.797 33.432 16.797 60.254v134.961h-56.641V263.237c0-11.979-2.344-20.733-7.031-26.27-4.688-5.533-12.959-8.301-24.805-8.301-16.928 0-28.646 8.075-35.156 24.219l.195 145.117h-56.445v-134.57c0-12.237-2.412-21.094-7.227-26.563-4.818-5.469-13.021-8.203-24.609-8.203-16.016 0-27.607 6.641-34.766 19.922v149.414h-56.445V186.674h52.929z"/><g fill="#FFF"><path d="M558.01 398.002V113.627h92.969c30.859 0 54.068 6.381 69.629 19.141 15.558 12.763 23.34 31.641 23.34 56.641 0 13.281-3.778 25.034-11.328 35.254-7.553 10.224-17.841 18.134-30.859 23.73 15.362 4.297 27.505 12.47 36.426 24.512 8.917 12.045 13.379 26.4 13.379 43.066 0 25.521-8.271 45.575-24.805 60.156-16.538 14.584-39.911 21.875-70.117 21.875H558.01zm37.5-163.085h56.641c16.406 0 29.522-4.107 39.355-12.329 9.83-8.222 14.746-19.379 14.746-33.472 0-15.659-4.56-27.045-13.672-34.155-9.116-7.11-22.983-10.669-41.602-10.669H595.51v90.625zm0 30.078v102.344h61.914c17.447 0 31.216-4.522 41.309-13.574 10.089-9.049 15.137-21.515 15.137-37.402 0-34.244-18.622-51.367-55.859-51.367H595.51zM885.064 401.909c-28.647 0-51.953-9.405-69.922-28.223-17.969-18.814-26.953-43.976-26.953-75.488v-6.641c0-20.963 4.004-39.679 12.012-56.152 8.008-16.47 19.205-29.361 33.594-38.672 14.386-9.308 29.98-13.965 46.777-13.965 27.472 0 48.828 9.052 64.063 27.148 15.234 18.1 22.852 44.013 22.852 77.734v15.039H824.322c.519 20.834 6.607 37.665 18.262 50.488 11.651 12.826 26.465 19.238 44.434 19.238 12.759 0 23.565-2.604 32.422-7.813 8.853-5.206 16.602-12.109 23.242-20.703l22.07 17.188c-17.71 27.217-44.272 40.822-79.688 40.822zm-4.492-189.453c-14.584 0-26.825 5.307-36.719 15.918-9.897 10.614-16.016 25.488-18.359 44.629h105.859v-2.734c-1.044-18.359-5.991-32.583-14.844-42.676-8.856-10.09-20.834-15.137-35.937-15.137zM1054.307 135.502v51.172h39.453v27.93h-39.453v131.22c0 8.475 1.758 14.831 5.273 19.067 3.516 4.235 9.503 6.354 17.969 6.354 4.166 0 9.894-.781 17.188-2.344v29.126c-9.506 2.588-18.75 3.882-27.734 3.882-16.147 0-28.32-4.883-36.523-14.648s-12.305-23.633-12.305-41.602V214.604h-38.477v-27.93h38.477v-51.172h36.132zM1180.971 135.502v51.172h39.453v27.93h-39.453v131.22c0 8.475 1.758 14.831 5.273 19.067 3.516 4.235 9.503 6.354 17.969 6.354 4.166 0 9.894-.781 17.188-2.344v29.126c-9.506 2.588-18.75 3.882-27.734 3.882-16.147 0-28.32-4.883-36.523-14.648s-12.305-23.633-12.305-41.602V214.604h-38.477v-27.93h38.477v-51.172h36.132zM1346.307 401.909c-28.646 0-51.953-9.405-69.922-28.223-17.969-18.814-26.954-43.976-26.954-75.488v-6.641c0-20.963 4.004-39.679 12.012-56.152 8.008-16.47 19.205-29.361 33.594-38.672 14.385-9.308 29.98-13.965 46.777-13.965 27.471 0 48.828 9.052 64.063 27.148 15.234 18.1 22.852 44.013 22.852 77.734v15.039h-143.164c.518 20.834 6.607 37.665 18.262 50.488 11.65 12.826 26.465 19.238 44.434 19.238 12.76 0 23.564-2.604 32.422-7.813 8.854-5.206 16.602-12.109 23.242-20.703l22.07 17.188c-17.709 27.217-44.272 40.822-79.688 40.822zm-4.492-189.453c-14.584 0-26.826 5.307-36.719 15.918-9.896 10.614-16.016 25.488-18.359 44.629h105.859v-2.734c-1.045-18.359-5.99-32.583-14.844-42.676-8.857-10.09-20.834-15.137-35.937-15.137zM1568.674 219.096c-5.469-.909-11.396-1.367-17.773-1.367-23.701 0-39.779 10.092-48.242 30.273v150h-36.133V186.674h35.156l.586 24.414c11.846-18.878 28.643-28.32 50.391-28.32 7.031 0 12.369.913 16.016 2.734v33.594z"/></g><g><defs><path id="e" d="M154.277 62.479c-30.357 5.57-51.396 14.559-64.318 27.481-15.126 15.127-24.955 41.57-30.047 80.842-3.803 29.33-4.88 65.824-3.202 108.466 2.836 72.063 12.728 138.12 12.827 138.779l1.45 9.595 9.576 1.57c3.698.606 91.532 14.847 177.204 14.847 33.982 0 63.129-2.299 86.629-6.834 30.024-5.793 51.095-15.085 64.419-28.408 15.778-15.778 26-42.603 31.251-82.005 3.93-29.488 4.963-65.975 3.071-108.447-3.197-71.758-13.819-137.148-13.926-137.8l-1.57-9.576-9.595-1.45c-.9-.136-90.935-13.596-176.105-13.596-34.531-.001-64.026 2.198-87.664 6.536"/></defs><clipPath id="f"><use xlink:href="#e" overflow="visible"/></clipPath><linearGradient id="g" gradientUnits="userSpaceOnUse" x1="-244.22" y1="-.647" x2="-243.887" y2="-.647" gradientTransform="scale(1352.791 -1352.791) rotate(-45 -121.376 -295.236)"><stop offset="0" stop-color="#fff373"/><stop offset="1" stop-color="#cc1414"/></linearGradient><path clip-path="url(#f)" fill="url(#g)" d="M250.031-139.058L639.088 250 250.031 639.057-139.027 250z"/></g><g><defs><path id="h" d="M0 0h500v500H0z"/></defs><clipPath id="i"><use xlink:href="#h" overflow="visible"/></clipPath><path clip-path="url(#i)" fill="#FFF" d="M241.941 69.275c85.154-.001 174.113 13.446 174.113 13.446s42.258 257.74-16.667 316.666c-24.205 24.205-81.966 31.338-141.62 31.338-85.571 0-175.046-14.671-175.046-14.671s-39.39-260.61 16.667-316.666c23.303-23.304 81.968-30.113 142.553-30.113M242 42.608v26.667l-.027-26.667c-35.345 0-65.661 2.273-90.09 6.756-33.106 6.075-56.447 16.27-71.345 31.167-9.713 9.713-17.297 22.765-23.179 39.899-4.646 13.534-8.235 29.904-10.667 48.656-3.899 30.07-5.011 67.316-3.303 110.704 2.866 72.799 12.556 137.528 12.967 140.249l2.9 19.189 19.152 3.141c.941.154 23.437 3.822 56.809 7.523 30.836 3.421 77.13 7.498 122.552 7.498 34.828 0 64.825-2.38 89.155-7.075 32.724-6.313 56.053-16.805 71.321-32.072 17.926-17.926 29.388-47.258 35.041-89.672 4.034-30.266 5.101-67.545 3.174-110.801-3.232-72.541-13.647-136.669-14.089-139.364l-3.14-19.152-19.189-2.901c-.935-.141-23.231-3.497-56.37-6.884C333.052 46.339 287 42.608 242 42.608"/></g><g><defs><path id="j" d="M0 0h500v500H0z"/></defs><clipPath id="k"><use xlink:href="#j" overflow="visible"/></clipPath><path clip-path="url(#k)" fill="#FFF" d="M286.333 282v29H322v32.546c-6.333 6.25-16.663 9.375-31.332 9.375-14.583 0-25.627-5.078-33.179-15.234-5.836-7.849-9.401-18.552-10.728-32.207-.085.03.085-.03 0 0 6.546-2.301 11.991-5.298 16.828-9.194 11.631-9.375 17.453-23.214 17.453-41.443 0-10.677-2.946-19.722-8.545-27.101-.846-1.114-1.83-2.174-2.83-3.176v-.004c5-2.354 10.805-3.538 17.254-3.538 10.417 0 18.672 2.484 24.619 7.518 5.945 5.035 9.86 13.126 11.598 23.793h38.021c-2.344-20.333-9.854-36.055-22.526-46.776-12.675-10.72-30.253-16.064-52.735-16.064-4.297 0-8.445.271-12.451.79 2.2-5.284 3.303-11.075 3.303-17.379 0-17.013-5.947-29.901-17.839-38.713C247.018 125.382 229.57 121 206.568 121H140v189.667h67.55c1.511 11.667 4.601 22.313 9.272 31.773 6.726 13.63 16.276 23.991 28.646 31.152 12.37 7.161 26.758 10.726 43.165 10.726 15.625 0 29.78-2.332 42.628-6.975C344.107 372.701 354 366.16 361 357.739V282h-74.667zM179 152.667h27.568c10.763 0 18.64 1.851 23.633 5.627 4.99 3.776 7.487 9.919 7.487 18.513 0 15.365-9.854 23.193-29.558 23.527H179v-47.667zm55.237 119.842c-5.166 4.385-12.349 6.49-21.549 6.49H179v-51h36.031c17.969.333 26.953 9.06 26.953 26.419 0 7.729-2.583 13.709-7.747 18.091"/></g><path fill="none" d="M0 0h500v500H0z"/></svg>