<svg version="1.2" baseProfile="tiny" xmlns="http://www.w3.org/2000/svg" width="1244.335" height="1244.351"><linearGradient id="a" gradientUnits="userSpaceOnUse" x1="142.047" y1="142.055" x2="1098.614" y2="1098.623"><stop offset="0" stop-color="#fff373"/><stop offset="1" stop-color="#cc1414"/></linearGradient><path fill="url(#a)" d="M645.47 1204.351c-257.017 0-520.52-42.722-531.611-44.54l-28.728-4.71-4.351-28.785c-.299-1.977-29.972-200.148-38.482-416.34-5.035-127.926-1.804-237.405 9.606-325.396 15.276-117.814 44.762-197.145 90.143-242.525C180.812 103.289 243.927 76.321 335 59.61 405.913 46.598 494.396 40 597.992 40c255.512 0 525.618 40.38 528.317 40.788l28.784 4.351 4.71 28.728c.321 1.957 32.188 198.127 41.778 413.4 5.678 127.418 2.578 236.878-9.212 325.341-15.754 118.209-46.421 198.682-93.755 246.015-39.971 39.971-103.186 67.849-193.257 85.228-70.501 13.603-157.94 20.5-259.887 20.5z"/><path fill="#FFF" d="M597.992 80c255.461-.004 522.338 40.339 522.338 40.339s126.776 773.223-50 950c-72.614 72.614-245.9 94.013-424.861 94.013-256.713 0-525.138-44.013-525.138-44.013s-118.17-781.829 50-950c69.91-69.91 245.905-90.337 427.661-90.339m.175-80v80l-.082-80c-106.037.001-196.984 6.82-270.27 20.268-99.319 18.224-169.343 48.809-214.037 93.502-29.141 29.141-51.892 68.294-69.538 119.698-13.938 40.603-24.708 89.713-32.002 145.968C.542 469.647-2.793 581.386 2.33 711.549c8.597 218.396 37.667 412.585 38.9 420.745l8.701 57.569 57.456 9.42c2.824.464 70.312 11.468 170.426 22.573 92.51 10.262 231.391 22.494 367.656 22.494 104.485 0 194.475-7.142 267.467-21.226 98.172-18.941 168.159-50.415 213.963-96.219 53.777-53.777 88.163-141.772 105.12-269.015 12.102-90.798 15.305-202.635 9.523-332.405-9.695-217.621-40.94-410.008-42.266-418.092l-9.421-57.455-57.567-8.703c-2.803-.423-69.692-10.489-169.11-20.653C871.325 11.194 733.167 0 598.167 0z"/><path fill="#FFF" d="M731.167 718.175v87h107v97.639c-19 18.75-49.99 28.125-93.996 28.125-43.75 0-76.881-15.234-99.537-45.703-17.509-23.546-28.204-55.658-32.182-96.623-.255.091.256-.091 0 0 19.637-6.903 35.974-15.893 50.482-27.584 34.894-28.125 52.359-69.641 52.359-124.328 0-32.031-8.838-59.167-25.635-81.304-2.537-3.343-5.491-6.522-8.491-9.527v-.013c15-7.063 32.414-10.613 51.764-10.613 31.25 0 56.016 7.452 73.856 22.552 17.834 15.106 29.581 39.38 34.794 71.38h114.063c-7.031-61-29.56-108.163-67.578-140.329-38.025-32.159-90.76-48.192-158.203-48.192-12.891 0-25.338.813-37.353 2.371 6.598-15.852 9.908-33.226 9.908-52.14 0-51.038-17.841-89.703-53.516-116.137-35.681-26.428-88.025-39.574-157.031-39.574H292.167v569h202.651c4.534 35 13.803 66.938 27.818 95.321 20.178 40.889 48.828 71.972 85.938 93.456s80.273 32.177 129.492 32.177c46.875 0 89.343-6.996 127.887-20.924 38.537-13.928 68.215-33.55 89.215-58.813V718.175H731.167zm-322-388h82.704c32.288 0 55.92 5.552 70.898 16.88 14.972 11.328 22.461 29.759 22.461 55.541 0 46.094-29.56 69.58-88.672 70.58h-87.392V330.175zm165.712 359.529c-15.497 13.154-37.048 19.472-64.648 19.472H409.167v-153h108.095c53.906 1 80.859 27.179 80.859 79.26 0 23.181-7.751 41.121-23.242 54.268z"/></svg>
